<svg width="200" height="39" viewBox="0 0 200 39" fill="none" xmlns="http://www.w3.org/2000/svg">
<path d="M56.1237 14.1287V25.942C57.1234 25.8023 57.7529 25.2128 57.7529 24.1858V21.7612H61.7521C62.684 21.7612 63.4554 21.0866 63.5974 20.2055H57.7529V15.6782H62.289C63.2209 15.6782 63.9923 15.0037 64.1343 14.1226H56.1237V14.1287ZM111.525 24.1433C111.55 25.146 112.167 25.8083 113.155 25.9481V15.6843H115.062C115.993 15.6843 116.765 15.0098 116.907 14.1287H107.779C107.921 15.0098 108.693 15.6843 109.624 15.6843H111.525V24.1433ZM73.6754 23.9306H79.0446L79.1125 24.1251C79.1742 24.3134 79.2113 24.4046 79.2298 24.4471C79.2483 24.4836 79.2606 24.5201 79.273 24.5626C79.4519 25.0244 79.7729 25.8509 81.6922 25.9603L77.187 14.1347H75.5207L71.0155 25.9603C72.941 25.857 73.2619 25.0244 73.4347 24.5626C73.4471 24.5261 73.4656 24.4897 73.4779 24.4593C73.5026 24.4107 73.5335 24.3195 73.6014 24.1311L73.6754 23.9306ZM78.4769 22.3749H74.2185L76.3662 16.2859L78.1806 21.5789L78.4769 22.3749ZM125.393 23.9306H130.762L130.83 24.1251C130.891 24.3134 130.928 24.4046 130.947 24.4471C130.966 24.4836 130.978 24.5201 130.99 24.5565C131.169 25.0184 131.49 25.8448 133.416 25.9542L128.91 14.1287H127.244L122.739 25.9542C124.664 25.8509 124.985 25.0184 125.158 24.5565C125.17 24.5201 125.189 24.4836 125.201 24.4532C125.226 24.4046 125.257 24.3134 125.325 24.1251L125.393 23.9306ZM130.194 22.3749H125.936L128.083 16.2859L129.898 21.5789L130.194 22.3749ZM91.2519 16.7295L96.5655 24.7024C96.6026 24.7571 97.2629 25.8448 99.0897 25.9603V14.153C98.1022 14.2927 97.4789 15.1131 97.4542 16.1219V23.092L92.3936 15.5446C92.3504 15.4838 91.616 14.2563 89.6164 14.1408V25.9481C90.6039 25.8083 91.2272 25.1277 91.2519 24.1251V24.0704V16.7295ZM139.927 23.5478C140.858 25.3647 142.42 26.2459 144.697 26.2459C146.061 26.2459 147.141 25.942 147.906 25.3344C148.659 24.7388 149.03 23.8941 149.03 22.7638C149.03 20.9347 147.795 19.7497 145.259 19.142C144.08 18.8564 143.296 18.5526 142.87 18.2184C142.531 17.9449 142.358 17.5742 142.358 17.1245C142.358 16.3467 142.741 15.423 144.555 15.423C145.296 15.423 145.968 15.6357 146.555 16.055C147.696 16.7903 148.622 16.3467 148.992 16.0915C148.616 15.4777 148.104 14.9673 147.462 14.5783C146.629 14.0679 145.666 13.8066 144.586 13.8066C143.333 13.8066 142.327 14.1287 141.599 14.7546C140.871 15.3805 140.513 16.1948 140.513 17.24C140.513 18.9476 141.556 20.0232 143.697 20.5215C145.117 20.8496 146.03 21.1596 146.493 21.4816C146.925 21.7855 147.141 22.2291 147.141 22.7942C147.141 23.3776 146.974 23.8212 146.641 24.1129C146.259 24.4411 145.66 24.5991 144.796 24.5991C143.932 24.5991 143.204 24.4107 142.623 24.0339C142.531 23.9731 142.438 23.9063 142.352 23.8334C141.278 22.9948 140.322 23.3351 139.927 23.5478Z" fill="#0488BB"/>
<path d="M195.408 22.0589L199.519 18.7166H197.667L194.162 21.5424V16.7052H192.872V25.6442H194.162V22.5815L198.093 25.6442H200L195.408 22.0589Z" fill="#0488BB"/>
<path d="M163.286 18.7106C161.317 18.7106 159.712 20.2906 159.712 22.2291C159.712 24.1676 161.317 25.7476 163.286 25.7476C163.958 25.7476 164.619 25.5592 165.193 25.2006L165.298 25.1338V23.5113L164.915 23.8759C164.477 24.2952 163.897 24.5322 163.286 24.5322C161.996 24.5322 160.947 23.4991 160.947 22.2291C160.947 20.959 161.996 19.9259 163.286 19.9259C163.897 19.9259 164.477 20.1569 164.915 20.5822L165.298 20.9469V19.3243L165.193 19.2575C164.619 18.905 163.958 18.7106 163.286 18.7106Z" fill="#0488BB"/>
<path d="M188.465 18.7106C186.497 18.7106 184.892 20.2906 184.892 22.2291C184.892 24.1676 186.497 25.7476 188.465 25.7476C189.138 25.7476 189.798 25.5592 190.372 25.2006L190.477 25.1338V23.5113L190.095 23.8759C189.657 24.2952 189.076 24.5322 188.465 24.5322C187.176 24.5322 186.126 23.4991 186.126 22.2291C186.126 20.959 187.176 19.9259 188.465 19.9259C189.076 19.9259 189.657 20.1569 190.095 20.5822L190.477 20.9469V19.3243L190.372 19.2575C189.805 18.905 189.144 18.7106 188.465 18.7106Z" fill="#0488BB"/>
<path d="M172.734 19.0873C172.345 18.8746 171.926 18.7652 171.475 18.7652C170.766 18.7652 170.025 19.1541 169.278 19.9198L169.013 20.1933V16.7112H167.834V25.6442H169.013V21.7976L170.13 20.6733C170.63 20.1629 171.056 19.9259 171.481 19.9259C171.728 19.9259 171.95 19.9806 172.16 20.1021C172.352 20.2115 172.481 20.3391 172.58 20.5153C172.586 20.5275 172.747 20.8192 172.747 21.8036V25.6442H173.932V21.8036C173.932 20.965 173.827 20.3452 173.629 19.9684C173.413 19.5977 173.117 19.3 172.734 19.0873Z" fill="#0488BB"/>
<path d="M182.856 21.7915C182.627 19.9138 181.356 18.6984 179.622 18.6984C177.69 18.6984 176.234 20.2116 176.234 22.2169C176.234 24.1554 177.838 25.7354 179.807 25.7354C180.696 25.7354 181.597 25.4012 182.282 24.8239L182.362 24.757V22.8732L181.961 23.3654C181.911 23.4262 181.856 23.4931 181.813 23.5477C181.387 24.1372 180.603 24.52 179.807 24.52C178.61 24.52 177.61 23.6207 177.48 22.4721H182.936L182.856 21.7915ZM177.647 21.2568C177.98 20.4303 178.727 19.9138 179.622 19.9138C180.77 19.9138 181.263 20.7159 181.467 21.2568H177.647Z" fill="#0488BB"/>
<path d="M39.3495 24.1676L46.5516 18.8564L41.0899 15.7755L39.3495 24.1676Z" fill="url(#paint0_linear)"/>
<path d="M4.91257 18.4554L2.12305 24.7084L10.7385 26.6166L4.91257 18.4554Z" fill="url(#paint1_linear)"/>
<path d="M10.7384 26.6166L19.4649 38.8371L30.191 30.9251L10.7384 26.6166Z" fill="url(#paint2_linear)"/>
<path d="M2.12305 24.7084L19.465 38.8371L10.7385 26.6166L2.12305 24.7084Z" fill="url(#paint3_linear)"/>
<path d="M19.4649 38.8371L37.603 32.5658L46.5517 18.8564L19.4649 38.8371Z" fill="#0A51A1"/>
<path d="M30.3514 9.71078L13.1391 0L8.20807 11.0659L30.3514 9.71078Z" fill="url(#paint4_linear)"/>
<path d="M0 11.5703L1.92551 23.4991L11.9295 1.06952L0 11.5703Z" fill="#28AECF"/>
<path d="M41.2318 15.0888L42.5093 8.96942L31.5734 9.63787L41.2318 15.0888Z" fill="url(#paint5_linear)"/>
<path d="M16.0953 0.899353L31.5734 9.63785L42.5093 8.9694L16.0953 0.899353Z" fill="url(#paint6_linear)"/>
<path d="M46.1443 17.8598L42.5093 8.96942L41.2318 15.0888L46.1443 17.8598Z" fill="url(#paint7_linear)"/>
<defs>
<linearGradient id="paint0_linear" x1="42.9377" y1="21.9032" x2="42.8436" y2="12.7016" gradientUnits="userSpaceOnUse">
<stop stop-color="#F2FA98"/>
<stop offset="0.3113" stop-color="#EFF889"/>
<stop offset="0.9171" stop-color="#E7F561"/>
<stop offset="1" stop-color="#E6F45B"/>
</linearGradient>
<linearGradient id="paint1_linear" x1="-1.89304" y1="14.1457" x2="7.18369" y2="27.0235" gradientUnits="userSpaceOnUse">
<stop offset="0.1" stop-color="#99D9E8"/>
<stop offset="0.8" stop-color="#529EB1"/>
</linearGradient>
<linearGradient id="paint2_linear" x1="20.304" y1="28.2376" x2="23.1702" y2="38.6665" gradientUnits="userSpaceOnUse">
<stop offset="0.2" stop-color="#4EAACE"/>
<stop offset="0.798" stop-color="#80CFE3"/>
</linearGradient>
<linearGradient id="paint3_linear" x1="1.63302" y1="31.0914" x2="19.9667" y2="32.5256" gradientUnits="userSpaceOnUse">
<stop stop-color="#167A9D"/>
<stop offset="1" stop-color="#298FA8"/>
</linearGradient>
<linearGradient id="paint4_linear" x1="12.557" y1="1.1498" x2="20.388" y2="12.2603" gradientUnits="userSpaceOnUse">
<stop stop-color="#E5E9F3"/>
<stop offset="1" stop-color="#80C5DD"/>
</linearGradient>
<linearGradient id="paint5_linear" x1="37.5565" y1="7.98107" x2="35.3601" y2="16.6654" gradientUnits="userSpaceOnUse">
<stop offset="0.15" stop-color="#A6C8E0"/>
<stop offset="0.55" stop-color="#E5E9F3"/>
</linearGradient>
<linearGradient id="paint6_linear" x1="19.0824" y1="8.73148" x2="39.4518" y2="0.95784" gradientUnits="userSpaceOnUse">
<stop stop-color="#99B9D8"/>
<stop offset="0.6" stop-color="#5BA4CC"/>
</linearGradient>
<linearGradient id="paint7_linear" x1="41.0187" y1="9.47417" x2="44.4274" y2="18.6865" gradientUnits="userSpaceOnUse">
<stop stop-color="#99BE5A"/>
<stop offset="0.1557" stop-color="#A9C75D"/>
<stop offset="0.4586" stop-color="#D3DF64"/>
<stop offset="0.5" stop-color="#D9E365"/>
<stop offset="1" stop-color="#E5E8A0"/>
</linearGradient>
</defs>
</svg>
